<svg width="243" height="188" viewBox="0 0 243 188" fill="none" xmlns="http://www.w3.org/2000/svg">
<g opacity="0.9">
<path opacity="0.9" d="M121.273 0.701706V58.531L170.15 80.3719L121.273 0.701706Z" fill="#FF2B5E"/>
<path opacity="0.6" d="M121.268 0.701874L72.3839 80.372L121.268 58.5312V0.701874Z" fill="#FF2B5E"/>
<path opacity="0.9" d="M121.273 117.847V157.141L170.183 89.4735L121.273 117.847Z" fill="#FF2B5E"/>
<path opacity="0.6" d="M121.268 157.141V117.841L72.3835 89.4735L121.268 157.141Z" fill="#FF2B5E"/>
<path d="M121.273 108.752L170.15 80.3719L121.273 58.5441V108.752Z" fill="#FF2B5E"/>
<path opacity="0.8" d="M72.3835 80.3719L121.268 108.752V58.5441L72.3835 80.3719Z" fill="#FF2B5E"/>
<path d="M45.1934 134.542L17.8388 165.425C40.277 183.424 67.6869 189.232 93.6759 181.499L121.54 173.203L149.407 181.499C175.396 189.235 202.806 183.424 225.244 165.425L197.557 134.359" stroke="#FF2B5E" stroke-width="6.05571" stroke-linecap="round"/>
<path d="M168.845 81.7134H168.837" stroke="#FF2B5E" stroke-width="2.05703"/>
<path d="M64.9108 78.4336L46.018 72.232L45.5915 102.093C45.3754 117.269 52.5686 131.608 64.8554 140.51L121.545 173.199L178.899 140.502C191.25 131.608 198.476 117.244 198.254 102.024L197.836 72.232L176.974 78.8795" stroke="#FF2B5E" stroke-width="6.05571" stroke-linecap="round"/>
<path d="M36.6234 106.332C26.5691 103.432 16.4427 104.659 6.28583 107.891C17.642 119.585 24.14 131.138 26.5331 141.666" stroke="#FF2B5E" stroke-width="6.05571" stroke-linecap="round"/>
<path d="M206.822 106.332C216.877 103.432 227 104.659 237.16 107.891C225.801 119.585 219.306 131.138 216.913 141.666" stroke="#FF2B5E" stroke-width="6.05571" stroke-linecap="round"/>
<path d="M79.8942 57.487L67.0146 48.7068L64.8348 68.184" stroke="#FF2B5E" stroke-width="6.05571" stroke-linecap="round"/>
<path d="M162.062 57.487L174.942 48.7068L177.418 68.184" stroke="#FF2B5E" stroke-width="6.05571" stroke-linecap="round"/>
</g>
</svg>
